<svg width="28" height="28" xmlns="http://www.w3.org/2000/svg" data-name="Layer 1">
 <g>
  <title>Layer 1</title>
  <path class="cls-2" d="m14,3.24694c-3.30856,0 -5.99998,2.69142 -5.99998,5.99998s5.99998,10.19997 5.99998,10.19997c0,0 5.99998,-6.89141 5.99998,-10.19997s-2.69142,-5.99998 -5.99998,-5.99998zm0,7.79998c-1.66285,0 -2.99999,-1.33714 -2.99999,-2.99999s1.33714,-2.99999 2.99999,-2.99999s2.99999,1.33714 2.99999,2.99999s-1.33714,2.99999 -2.99999,2.99999z" fill="#3b84ea" id="svg_1" stroke="null"/>
  <g stroke="null" id="svg_2">
   <g stroke="null" id="svg_3">
    <path stroke="#3b84ea" class="cls-1" d="m25.75676,8.11738c-0.57218,0.57218 -1.38958,0.94001 -2.2683,0.94001s-1.69612,-0.36783 -2.2683,-0.94001s-0.94001,-1.38958 -0.94001,-2.2683" fill="none" stroke-linecap="round" stroke-linejoin="bevel" id="svg_4"/>
    <path stroke="null" class="cls-2" d="m27.18721,5.99213l-1.75741,0.40871c-0.49044,0.12261 -0.67436,0.73566 -0.30653,1.1035l1.34872,1.34872c0.36783,0.36783 0.98089,0.18392 1.1035,-0.30653l0.40871,-1.75741c0.10218,-0.47001 -0.30653,-0.89915 -0.77654,-0.77654l-0.02043,-0.02043l-0.00001,-0.00001z" fill="#3b84ea" id="svg_5"/>
   </g>
   <g stroke="null" id="svg_6">
    <path stroke="#3b84ea" class="cls-1" d="m22.77324,1.25119c0.65393,-0.51087 1.49176,-0.77654 2.37047,-0.67436s1.6348,0.55175 2.14569,1.20568s0.77654,1.49176 0.67436,2.37047" fill="none" stroke-linecap="round" stroke-linejoin="bevel" id="svg_7"/>
    <path stroke="null" class="cls-2" d="m21.09755,3.21297l1.79829,-0.20435c0.51087,-0.06131 0.7561,-0.65393 0.42914,-1.06262l-1.18523,-1.49176c-0.32696,-0.40871 -0.96044,-0.30653 -1.12393,0.18392l-0.61305,1.69612c-0.16347,0.44957 0.20435,0.91958 0.69479,0.87871l-0.00001,-0.00001z" fill="#3b84ea" id="svg_8"/>
   </g>
  </g>
 </g>

</svg>